<svg width="101" height="38" viewBox="0 0 101 38" fill="none" xmlns="http://www.w3.org/2000/svg">
<path d="M29.5454 8.38098L30.4521 28.8H26.1794L25.8626 21.0103L15.7461 36.1761L11.3548 21.941L4.63372 38H0L11.9243 9.50748L17.1561 26.4151L29.5454 8.38098Z" fill="white"/>
<path d="M19.9871 0C30.317 0 38.691 8.43313 38.691 18.8359C38.691 26.7072 33.8967 33.4509 27.0883 36.2668L27.0883 33.6048C32.5275 30.9476 36.2776 25.3328 36.2776 18.8359C36.2776 9.77542 28.9841 2.43044 19.9871 2.43044C10.9901 2.43044 3.69661 9.77542 3.69661 18.8359C3.69661 22.6222 4.97026 26.1088 7.10964 28.8851L5.46025 28.8849L5.45997 30.7013C2.84832 27.4625 1.2832 23.3333 1.2832 18.8359C1.2832 8.43313 9.65723 0 19.9871 0Z" fill="white"/>
<path fill-rule="evenodd" clip-rule="evenodd" d="M27.2927 33.5239L26.1598 32.9525H23.6836V36.7621H26.1598L27.2927 36.1762V33.5239Z" fill="white"/>
<path d="M23.6842 33.5239H21.2207V34.4763H23.6842V33.5239Z" fill="white"/>
<path d="M23.6842 35.2383H21.2207V36.1907H23.6842V35.2383Z" fill="white"/>
<path d="M49.5511 15.4207L48.7317 13.5586L48.3576 15.4207L47.1463 21.5621H45.169L47.8766 8.40198H48.0904L51.6887 15.5102L52.7574 17.8916L53.8262 15.5102L57.3533 8.40198H57.5492L60.3637 21.5621H58.4042L57.0861 15.4207L56.6942 13.5586L55.9816 15.4207L52.8109 21.5621H52.704L49.5511 15.4207ZM65.4811 21.7411C64.7448 21.7411 64.0649 21.565 63.4414 21.2129C62.818 20.8608 62.3192 20.3594 61.9451 19.7089C61.571 19.0584 61.384 18.2974 61.384 17.426C61.384 16.5666 61.5473 15.8146 61.8739 15.17C62.2005 14.5254 62.6666 14.0241 63.2722 13.666C63.8779 13.3079 64.5904 13.1289 65.4098 13.1289C65.8848 13.1289 66.3302 13.2124 66.7458 13.3795C67.1614 13.5466 67.5118 13.7525 67.7968 13.9972C68.0818 14.2419 68.2718 14.4837 68.3668 14.7224L68.4024 13.3437H70.2372V21.5621H68.4202L68.3846 20.1118C68.1827 20.5415 67.8146 20.9205 67.2802 21.2487C66.7458 21.577 66.1461 21.7411 65.4811 21.7411ZM65.8017 20.1297C66.4786 20.1297 67.0486 19.8939 67.5118 19.4224C67.9749 18.9509 68.2065 18.3332 68.2065 17.5693V17.4439C68.2065 16.9307 68.0996 16.4711 67.8858 16.0653C67.6721 15.6594 67.3811 15.3431 67.013 15.1163C66.6449 14.8895 66.2411 14.7761 65.8017 14.7761C65.0417 14.7761 64.4538 15.0238 64.0382 15.5192C63.6225 16.0145 63.4147 16.6561 63.4147 17.4439C63.4147 18.2437 63.6196 18.8912 64.0293 19.3866C64.439 19.882 65.0298 20.1297 65.8017 20.1297ZM72.354 13.3437H74.2778V14.9552C74.4679 14.4061 74.7766 13.9644 75.2041 13.6302C75.6317 13.296 76.1185 13.1289 76.6648 13.1289C77.0448 13.1289 77.3061 13.1647 77.4486 13.2363L77.1814 15.1879C77.0745 15.1163 76.843 15.0805 76.4867 15.0805C75.9285 15.0805 75.4209 15.2595 74.9637 15.6176C74.5064 15.9757 74.2778 16.5487 74.2778 17.3365V21.5621H72.354V13.3437ZM78.4649 13.3437H80.6559L82.4195 17.05L82.9895 18.5361L83.5595 17.05L85.3052 13.3437H87.4428L83.1498 21.5621H82.7757L78.4649 13.3437ZM92.3236 21.7411C91.3498 21.7411 90.5364 21.5471 89.8832 21.1592C89.2301 20.7713 88.7491 20.252 88.4403 19.6015C88.1316 18.9509 87.9772 18.2377 87.9772 17.4618C87.9772 16.5905 88.1583 15.8265 88.5205 15.17C88.8827 14.5135 89.3844 14.0092 90.0257 13.6571C90.667 13.3049 91.3914 13.1289 92.1989 13.1289C93.4577 13.1289 94.3929 13.478 95.0045 14.1763C95.6161 14.8746 95.9219 15.8564 95.9219 17.1216C95.9219 17.4439 95.9041 17.7782 95.8685 18.1243H89.9901C90.1207 18.8525 90.379 19.3777 90.765 19.6999C91.1509 20.0222 91.6883 20.1834 92.3771 20.1834C92.9471 20.1834 93.4162 20.1356 93.7843 20.0401C94.1525 19.9446 94.4909 19.8133 94.7997 19.6462L95.3875 21.0249C95.0906 21.2159 94.6869 21.383 94.1762 21.5262C93.6656 21.6695 93.048 21.7411 92.3236 21.7411ZM94.0515 16.7815C94.0634 16.0414 93.9031 15.5192 93.5706 15.2148C93.238 14.9104 92.763 14.7582 92.1455 14.7582C90.8986 14.7582 90.1801 15.4326 89.9901 16.7815H94.0515ZM98.0951 8.40198H100.001V21.5621H98.0951V8.40198ZM44.9785 25.512H46.2918C46.6165 25.512 46.8608 25.6128 47.0248 25.8144C47.1888 26.016 47.2707 26.2608 47.2707 26.5488C47.2707 26.8368 47.1888 27.0808 47.0248 27.2808C46.8608 27.4808 46.6165 27.5808 46.2918 27.5808H45.4274V28.8192H44.9785V25.512ZM46.287 25.9296H45.4274V27.1632H46.2631C46.451 27.1632 46.5918 27.1032 46.6857 26.9832C46.7797 26.8632 46.8266 26.7184 46.8266 26.5488C46.8266 26.3792 46.7813 26.2336 46.6905 26.112C46.5998 25.9904 46.4653 25.9296 46.287 25.9296ZM48.0558 27.1728C48.0558 26.6992 48.2166 26.2976 48.5382 25.968C48.8597 25.6384 49.2529 25.4736 49.7177 25.4736C50.1857 25.4736 50.5813 25.6384 50.9044 25.968C51.2275 26.2976 51.3891 26.6992 51.3891 27.1728C51.3891 27.6432 51.2275 28.0432 50.9044 28.3728C50.5813 28.7024 50.1857 28.8672 49.7177 28.8672C49.2529 28.8672 48.8597 28.7024 48.5382 28.3728C48.2166 28.0432 48.0558 27.6432 48.0558 27.1728ZM48.8533 26.2752C48.6177 26.5216 48.5 26.8208 48.5 27.1728C48.5 27.5248 48.617 27.8232 48.851 28.068C49.085 28.3128 49.3739 28.4352 49.7177 28.4352C50.0615 28.4352 50.3512 28.3128 50.5868 28.068C50.8224 27.8232 50.9402 27.5248 50.9402 27.1728C50.9402 26.8208 50.8224 26.5216 50.5868 26.2752C50.3512 26.0288 50.0615 25.9056 49.7177 25.9056C49.3771 25.9056 49.0889 26.0288 48.8533 26.2752ZM55.7128 25.512H56.1904L55.0777 28.8192H54.6909L54.1083 26.7552L53.5304 28.8192H53.1436L52.031 25.512H52.5085L53.3347 28.0992L53.9411 25.9584H54.2802L54.8867 28.0992L55.7128 25.512ZM57.1092 25.512H59.0576V25.9296H57.5533V26.9856H58.8666V27.4032H57.5533V28.4016H59.1053V28.8192H57.1092V25.512ZM61.5857 27.5664L62.4644 28.8192H61.9248L61.0748 27.5808H60.6545V28.8192H60.2056V25.512H61.4711C61.7959 25.512 62.0394 25.6128 62.2018 25.8144C62.3641 26.016 62.4453 26.2608 62.4453 26.5488C62.4453 26.8176 62.3745 27.048 62.2328 27.24C62.0911 27.432 61.8754 27.5408 61.5857 27.5664ZM61.4568 25.9296H60.6545V27.1632H61.4377C61.6255 27.1632 61.764 27.104 61.8532 26.9856C61.9423 26.8672 61.9869 26.7216 61.9869 26.5488C61.9869 26.3792 61.9431 26.2336 61.8555 26.112C61.768 25.9904 61.6351 25.9296 61.4568 25.9296ZM67.7595 25.9104L67.4395 26.208C67.2103 26.0032 66.9461 25.9008 66.6468 25.9008C66.3061 25.9008 66.018 26.0248 65.7824 26.2728C65.5468 26.5208 65.4291 26.8208 65.4291 27.1728C65.4291 27.5248 65.5468 27.824 65.7824 28.0704C66.018 28.3168 66.3061 28.44 66.6468 28.44C66.9461 28.44 67.1928 28.3592 67.387 28.1976C67.5812 28.036 67.6847 27.8192 67.6974 27.5472H66.7614V27.1584H68.2036C68.2036 27.7248 68.0651 28.1512 67.7881 28.4376C67.5112 28.724 67.1307 28.8672 66.6468 28.8672C66.182 28.8672 65.7888 28.7024 65.4673 28.3728C65.1457 28.0432 64.9849 27.6432 64.9849 27.1728C64.9849 26.6992 65.1457 26.2976 65.4673 25.968C65.7888 25.6384 66.182 25.4736 66.6468 25.4736C67.0766 25.4736 67.4475 25.6192 67.7595 25.9104ZM70.5885 27.5664L71.4672 28.8192H70.9275L70.0775 27.5808H69.6573V28.8192H69.2084V25.512H70.4739C70.7986 25.512 71.0421 25.6128 71.2045 25.8144C71.3669 26.016 71.4481 26.2608 71.4481 26.5488C71.4481 26.8176 71.3772 27.048 71.2356 27.24C71.0939 27.432 70.8782 27.5408 70.5885 27.5664ZM70.4595 25.9296H69.6573V27.1632H70.4404C70.6283 27.1632 70.7668 27.104 70.8559 26.9856C70.945 26.8672 70.9896 26.7216 70.9896 26.5488C70.9896 26.3792 70.9458 26.2336 70.8583 26.112C70.7707 25.9904 70.6378 25.9296 70.4595 25.9296ZM72.3478 27.1728C72.3478 26.6992 72.5085 26.2976 72.8301 25.968C73.1516 25.6384 73.5448 25.4736 74.0096 25.4736C74.4776 25.4736 74.8732 25.6384 75.1963 25.968C75.5195 26.2976 75.681 26.6992 75.681 27.1728C75.681 27.6432 75.5195 28.0432 75.1963 28.3728C74.8732 28.7024 74.4776 28.8672 74.0096 28.8672C73.5448 28.8672 73.1516 28.7024 72.8301 28.3728C72.5085 28.0432 72.3478 27.6432 72.3478 27.1728ZM73.1453 26.2752C72.9097 26.5216 72.7919 26.8208 72.7919 27.1728C72.7919 27.5248 72.9089 27.8232 73.1429 28.068C73.3769 28.3128 73.6658 28.4352 74.0096 28.4352C74.3535 28.4352 74.6432 28.3128 74.8788 28.068C75.1144 27.8232 75.2322 27.5248 75.2322 27.1728C75.2322 26.8208 75.1144 26.5216 74.8788 26.2752C74.6432 26.0288 74.3535 25.9056 74.0096 25.9056C73.669 25.9056 73.3809 26.0288 73.1453 26.2752ZM77.3974 28.224C77.5438 28.3648 77.7221 28.4352 77.9322 28.4352C78.1423 28.4352 78.3206 28.3648 78.4671 28.224C78.6135 28.0832 78.6867 27.9024 78.6867 27.6816V25.512H79.1356V27.6816C79.1356 28.0336 79.0186 28.3192 78.7846 28.5384C78.5506 28.7576 78.2665 28.8672 77.9322 28.8672C77.5979 28.8672 77.3138 28.7576 77.0798 28.5384C76.8458 28.3192 76.7288 28.0336 76.7288 27.6816V25.512H77.1777V27.6816C77.1777 27.9024 77.2509 28.0832 77.3974 28.224ZM81.7115 25.512C82.0363 25.512 82.2806 25.6128 82.4446 25.8144C82.6085 26.016 82.6905 26.2608 82.6905 26.5488C82.6905 26.8368 82.6085 27.0808 82.4446 27.2808C82.2806 27.4808 82.0363 27.5808 81.7115 27.5808H80.8472V28.8192H80.3983V25.512H81.7115ZM81.7068 25.9296H80.8472V27.1632H81.6829C81.8707 27.1632 82.0116 27.1032 82.1055 26.9832C82.1994 26.8632 82.2464 26.7184 82.2464 26.5488C82.2464 26.3792 82.201 26.2336 82.1103 26.112C82.0196 25.9904 81.885 25.9296 81.7068 25.9296Z" fill="white"/>
</svg>
